External Loads File
version=1
nRows=47
nColumns=13
Range=5.000000e-03-10 seconds
endheader
time 	forceRightX 	forceRightY 	forceRightZ 	pointRightX 	pointRightY 	pointRightZ 	forceLeftX 	forceLeftY 	forceLeftZ 	pointLeftX 	pointLeftY 	pointLeftZ 		
0.005000 35.307555 163.552560 -0.000000 0.339662 0.378837 -0.126026 63.050376 199.754512 -0.000000 0.024584 0.260773 -0.361837
0.010000 35.525650 163.374021 -0.000000 0.339673 0.378888 -0.126031 61.747698 199.228688 -0.000000 0.024584 0.260756 -0.361848
0.015000 35.687413 163.181010 -0.000000 0.339684 0.378910 -0.126029 60.428208 198.683257 -0.000000 0.024582 0.260737 -0.361842
0.020000 35.751119 162.997297 -0.000000 0.339692 0.378950 -0.126026 59.101964 198.141956 -0.000000 0.024594 0.260699 -0.361848
0.025000 32.999738 163.403958 -0.000000 0.339702 0.379214 -0.125980 54.562184 198.560548 -0.000000 0.027235 0.256017 -0.358025
0.030000 35.467387 162.710760 -0.000000 0.339694 0.379261 -0.126006 56.669530 197.190789 -0.000000 0.024607 0.260602 -0.361835
0.035000 35.195191 162.593460 -0.000000 0.339690 0.379322 -0.126009 55.836741 196.783230 -0.000000 0.024602 0.260539 -0.361836
0.040000 34.820145 162.509586 -0.000000 0.339685 0.379408 -0.126013 55.286699 196.436649 -0.000000 0.024609 0.260480 -0.361837
0.045000 34.404105 162.473355 -0.000000 0.339663 0.379480 -0.126002 55.039147 196.150209 -0.000000 0.024602 0.260398 -0.361836
0.050000 34.007136 162.501268 -0.000000 0.339639 0.379581 -0.126030 55.045713 195.934475 -0.000000 0.024623 0.260321 -0.361839
0.055000 33.671211 162.597715 -0.000000 0.339601 0.379704 -0.126027 55.210188 195.798213 -0.000000 0.024628 0.260208 -0.361844
0.060000 33.459612 162.745446 -0.000000 0.339565 0.379804 -0.126019 55.461570 195.720851 -0.000000 0.024649 0.260106 -0.361831
0.065000 33.350334 162.939532 -0.000000 0.339525 0.379928 -0.126023 55.619509 195.681530 -0.000000 0.024660 0.259997 -0.361839
0.070000 33.343830 163.171256 -0.000000 0.339497 0.380040 -0.126016 55.563185 195.634462 -0.000000 0.024687 0.259879 -0.361820
0.075000 33.396455 163.435492 -0.000000 0.339449 0.380160 -0.126017 55.247749 195.568284 -0.000000 0.024707 0.259766 -0.361809
0.080000 33.459846 163.718568 -0.000000 0.339400 0.380254 -0.126001 54.775773 195.515005 -0.000000 0.024698 0.259622 -0.361825
0.085000 33.487939 164.008139 -0.000000 0.339335 0.380388 -0.125996 54.305143 195.534144 -0.000000 0.024729 0.259523 -0.361804
0.090000 33.457660 164.301158 -0.000000 0.339281 0.380552 -0.125974 53.959515 195.680571 -0.000000 0.024775 0.259379 -0.361772
0.095000 33.463051 164.578901 -0.000000 0.339200 0.380671 -0.125959 53.892889 195.945949 -0.000000 0.024816 0.259270 -0.361776
0.100000 33.454270 164.847782 -0.000000 0.339126 0.380814 -0.125958 53.987043 196.320451 -0.000000 0.024849 0.259106 -0.361787
0.105000 33.450814 165.096213 -0.000000 0.339060 0.380994 -0.125963 54.151128 196.728971 -0.000000 0.024906 0.258982 -0.361790
0.110000 33.436187 165.321909 -0.000000 0.338993 0.381172 -0.125969 54.259585 197.099962 -0.000000 0.024887 0.258839 -0.361705
0.115000 33.376099 165.526031 -0.000000 0.338945 0.381370 -0.125987 54.225603 197.393489 -0.000000 0.024917 0.258708 -0.361707
0.120000 33.312328 165.692081 -0.000000 0.338897 0.381509 -0.126003 54.121062 197.585214 -0.000000 0.024820 0.258562 -0.361640
0.125000 33.203313 165.824372 -0.000000 0.338855 0.381617 -0.126012 53.953730 197.710791 -0.000000 0.024853 0.258428 -0.361621
0.130000 33.076753 165.920789 -0.000000 0.338834 0.381737 -0.126012 53.819657 197.797084 -0.000000 0.024874 0.258303 -0.361609
0.135000 32.853237 166.002617 -0.000000 0.338791 0.381826 -0.126004 53.675566 197.906173 -0.000000 0.025584 0.258195 -0.362981
0.140000 32.823473 166.014402 -0.000000 0.338781 0.381928 -0.126018 53.900995 197.979698 -0.000000 0.025603 0.258130 -0.362992
0.145000 32.937837 165.962960 -0.000000 0.338774 0.382027 -0.126030 54.463272 198.063149 -0.000000 0.025040 0.258024 -0.361773
0.150000 33.009364 165.876296 -0.000000 0.338774 0.382103 -0.126054 55.157065 198.221515 -0.000000 0.025043 0.257962 -0.361784
0.155000 33.071451 165.735878 -0.000000 0.338762 0.382152 -0.126058 55.997755 198.410085 -0.000000 0.025046 0.257891 -0.361787
0.160000 33.069810 165.546541 -0.000000 0.338753 0.382229 -0.126022 56.828060 198.585860 -0.000000 0.025061 0.257833 -0.361782
0.165000 33.018443 165.312266 -0.000000 0.338766 0.382279 -0.126017 57.525968 198.686407 -0.000000 0.025076 0.257791 -0.361791
0.170000 32.909925 165.049751 -0.000000 0.338764 0.382317 -0.126023 57.961872 198.697299 -0.000000 0.025074 0.257730 -0.361796
0.175000 32.789195 164.766210 -0.000000 0.338765 0.382369 -0.126021 58.154145 198.638966 -0.000000 0.025086 0.257676 -0.361771
0.180000 32.688026 164.471898 -0.000000 0.338755 0.382446 -0.126029 58.217456 198.569895 -0.000000 0.025127 0.257626 -0.361781
0.185000 32.665288 164.174083 -0.000000 0.338732 0.382491 -0.126027 58.361075 198.542338 -0.000000 0.025139 0.257573 -0.361784
0.190000 32.710342 163.894705 -0.000000 0.338712 0.382552 -0.126018 58.668403 198.600596 -0.000000 0.025141 0.257515 -0.361768
0.195000 32.846044 163.644477 -0.000000 0.338695 0.382599 -0.126015 59.164936 198.714876 -0.000000 0.025153 0.257500 -0.361761
0.200000 32.993953 163.443114 -0.000000 0.338673 0.382639 -0.126013 59.684701 198.831740 -0.000000 0.025164 0.257457 -0.361759
0.205000 33.099770 163.295556 -0.000000 0.338646 0.382682 -0.126014 60.076731 198.870614 -0.000000 0.025179 0.257411 -0.361754
0.210000 33.147879 163.201557 -0.000000 0.338631 0.382719 -0.126015 60.256198 198.778489 -0.000000 0.025202 0.257385 -0.361743
0.215000 33.159636 163.166085 -0.000000 0.338618 0.382735 -0.126009 60.213487 198.562946 -0.000000 0.025206 0.257361 -0.361735
0.220000 33.167113 163.199341 -0.000000 0.338593 0.382767 -0.126022 59.983911 198.280920 -0.000000 0.025223 0.257344 -0.361741
0.225000 33.243113 163.294896 -0.000000 0.338579 0.382785 -0.126018 59.690806 197.985021 -0.000000 0.025230 0.257331 -0.361734
0.230000 33.431886 163.434279 -0.000000 0.338727 0.382797 -0.125991 59.459354 197.718133 -0.000000 0.025231 0.257321 -0.361732
0.235000 33.638735 163.613687 -0.000000 0.338546 0.382792 -0.126009 59.258327 197.537511 -0.000000 0.025243 0.257333 -0.361736
